# xmcd
#
# Track frame offsets:
#	150
#	17248
#	32501
#	47172
#	71566
#	90895
#	112500
#	141602
#	157180
#	174224
#	196470
#
# Disc length: 2837 seconds
#
# Revision: 0
# Processed by: cddbd v1.5.2PL0 Copyright (c) Steve Scherf et al.
# Submitted via: dBpowerAMP V4.0
#
DISCID=8a0b130b
DTITLE=BLUES BUG and THE SILENT PARTNER - Blues Bug
DYEAR=1995
DGENRE=Blues
TTITLE0=Believe In
TTITLE1=Few Small Things
TTITLE2=Peace Of Mind
TTITLE3=Blues With A Feeling
TTITLE4=All About The Blues
TTITLE5=Are You Home Alone?
TTITLE6=Don't You Call My Name
TTITLE7=Walls Have Ears
TTITLE8=Funky Break
TTITLE9=Stay
TTITLE10=Shake That Thing
EXTD=
EXTT0=
EXTT1=
EXTT2=
EXTT3=
EXTT4=
EXTT5=
EXTT6=
EXTT7=
EXTT8=
EXTT9=
EXTT10=
PLAYORDER=
